<svg viewBox="0 0 133 40" fill="none" xmlns="http://www.w3.org/2000/svg" class="site-logo">
  <title>HyperX US</title>
  <path d="M30.1306 15.6949H34.6211C34.6211 15.6949 35.6308 12.3126 35.7154 12.037C35.9253 11.9196 45.2426 6.58949 45.2426 6.58949L46.2125 3.35938H41.722C41.722 3.35938 41.3141 4.73021 41.2435 4.97493C41.0366 5.09032 34.4848 8.8238 34.2381 8.96606C34.0242 8.77705 30.1654 5.44845 29.8043 5.13807C29.9247 4.74214 30.3425 3.35938 30.3425 3.35938H25.843L24.9238 6.45021C24.9238 6.45021 30.8797 11.6102 31.2547 11.9325C31.1015 12.4518 30.1306 15.6949 30.1306 15.6949Z" fill="#E21836"></path>
  <path d="M68.0031 10.6866L66.502 15.6934H86.8685L87.8424 12.4404H72.3852C73.3681 12.0206 79.1976 9.5754 79.1976 9.5754C79.1976 9.5754 74.5548 6.98892 73.8724 6.6119H89.5902L90.5661 3.35791H70.1986L68.7432 8.21651C68.7432 8.21651 70.1668 9.01931 70.9388 9.46597C69.9897 9.85593 68.0041 10.6866 68.0041 10.6866" fill="#E21836"></path>
  <path d="M8.15735 3.35938H3.70165L0 15.6949H4.46466L8.15735 3.35938Z" fill="#E21836"></path>
  <path d="M23.6213 3.35938H19.5486C19.5486 3.35938 18.315 7.46988 18.1847 7.89765H7.97111L6.99023 11.1566H17.2138C16.9591 11.9952 15.8489 15.6959 15.8489 15.6959H20.3404L24.0341 3.35938H23.6213Z" fill="#E21836"></path>
  <path d="M51.2916 6.61436H62.673C62.6144 6.80635 62.4263 7.42412 62.3637 7.63502C62.1647 7.7146 58.6153 9.21078 58.5357 9.23963H51.6676L50.6937 12.4926H59.2629L66.2842 9.54404L68.1385 3.35938H47.7819L44.0703 15.6949H48.5658L51.2916 6.61436Z" fill="#E21836"></path>
  <path d="M90.2317 11.5649L88.9941 15.6943H93.4827C93.4827 15.6943 94.2487 13.1288 94.4247 12.5597C93.0728 12.1887 91.6801 11.8634 90.2317 11.5649Z" fill="#E21836"></path>
  <path d="M104.682 12.3305C100.189 10.8052 95.4915 9.96445 90.748 9.83651L92.6879 3.35938H113.058L111.158 9.69027L104.682 12.3305ZM96.2115 6.61336C96.1617 6.77551 96.0125 7.26197 95.8593 7.77628L95.8543 7.79319C95.6822 8.36321 95.5052 8.95114 95.4166 9.23963H103.756L104.377 8.97601C105.329 8.57212 107.096 7.82204 107.251 7.76136C107.285 7.64497 107.35 7.42611 107.426 7.16448L107.59 6.61038H96.2115V6.61336Z" fill="#E21836"></path>
  <path d="M133 39.9576C129.947 30.893 125.318 24.4577 120.074 19.9045C124.774 15.3284 127.981 9.1298 128.558 0.743652C128.558 0.743652 126.639 9.08305 116.349 17.0414C101.048 6.62589 82.7463 9.58045 82.7463 9.58045C93.3935 10.341 103.668 13.8169 112.59 19.6767C102.947 25.8036 87.6736 31.085 63.6074 31.2631C63.6074 31.2631 98.0543 36.4539 116.819 22.662C123.18 27.4393 128.656 33.2928 133 39.9576Z" fill="#BBBDBF"></path>
</svg>